REM DIRINDEX 1\2\6,1\2\7,1\2\8,1\2\9,1\3\10,1\3\11,1\4\12,1\4\13,1\4\14,1\5\15,1\5\16,1\5\17
REM DIRNAME folder01,folder02,folder03,folder04,folder05,folder06,folder07,folder08,folder09,folder10,folder11,folder12,folder13,folder14,folder15,folder16,folder17
TITLE ""
FILE "1900_3_001 sec01_0001_0015.mp3" MP3
  TRACK 01 AUDIO
    TITLE "0:"
    INDEX 01 00:00:00
  TRACK 02 AUDIO
    TITLE "15:cjc020_5965"
    INDEX 01 00:00:21
  TRACK 03 AUDIO
    TITLE "0:"
    INDEX 01 00:04:17
  TRACK 04 AUDIO
    TITLE "15:cjc020_5966"
    INDEX 01 00:04:33
  TRACK 05 AUDIO
    TITLE "0:"
    INDEX 01 00:09:22
  TRACK 06 AUDIO
    TITLE "15:cjc020_5967"
    INDEX 01 00:09:65
  TRACK 07 AUDIO
    TITLE "0:"
    INDEX 01 00:11:23
  TRACK 08 AUDIO
    TITLE "17:cjc020_5968"
    INDEX 01 00:12:24
  TRACK 09 AUDIO
    TITLE "0:"
    INDEX 01 00:13:59
  TRACK 10 AUDIO
    TITLE "16:cjc020_5969"
    INDEX 01 00:13:71
  TRACK 11 AUDIO
    TITLE "0:"
    INDEX 01 00:15:07
  TRACK 12 AUDIO
    TITLE "17:cjc020_5970"
    INDEX 01 00:15:68
  TRACK 13 AUDIO
    TITLE "0:"
    INDEX 01 00:17:25
  TRACK 14 AUDIO
    TITLE "16:cjc020_5971"
    INDEX 01 00:17:31
  TRACK 15 AUDIO
    TITLE "0:"
    INDEX 01 00:18:37
  TRACK 16 AUDIO
    TITLE "17:cjc020_5972"
    INDEX 01 00:19:22
  TRACK 17 AUDIO
    TITLE "0:"
    INDEX 01 00:20:49
  TRACK 18 AUDIO
    TITLE "16:cjc020_5973"
    INDEX 01 00:20:55
  TRACK 19 AUDIO
    TITLE "0:"
    INDEX 01 00:21:64
  TRACK 20 AUDIO
    TITLE "17:cjc020_5974"
    INDEX 01 00:22:50
  TRACK 21 AUDIO
    TITLE "0:"
    INDEX 01 00:23:59
  TRACK 22 AUDIO
    TITLE "16:cjc020_5975"
    INDEX 01 00:23:63
  TRACK 23 AUDIO
    TITLE "0:"
    INDEX 01 00:24:65
  TRACK 24 AUDIO
    TITLE "17:cjc020_5976"
    INDEX 01 00:25:52
  TRACK 25 AUDIO
    TITLE "0:"
    INDEX 01 00:26:46
  TRACK 26 AUDIO
    TITLE "16:cjc020_5977"
    INDEX 01 00:26:54
  TRACK 27 AUDIO
    TITLE "0:"
    INDEX 01 00:27:67
  TRACK 28 AUDIO
    TITLE "17:cjc020_5978"
    INDEX 01 00:28:51
  TRACK 29 AUDIO
    TITLE "0:"
    INDEX 01 00:31:12
  TRACK 30 AUDIO
    TITLE "16:cjc020_5979"
    INDEX 01 00:31:14
  TRACK 31 AUDIO
    TITLE "0:"
    INDEX 01 00:32:29
  TRACK 32 AUDIO
    TITLE "17:cjc020_5980"
    INDEX 01 00:33:13
  TRACK 33 AUDIO
    TITLE "0:"
    INDEX 01 00:34:43
  TRACK 34 AUDIO
    TITLE "16:cjc020_5981"
    INDEX 01 00:34:47
  TRACK 35 AUDIO
    TITLE "0:"
    INDEX 01 00:35:59
  TRACK 36 AUDIO
    TITLE "17:cjc020_5982"
    INDEX 01 00:36:48
  TRACK 37 AUDIO
    TITLE "0:"
    INDEX 01 00:38:06
  TRACK 38 AUDIO
    TITLE "16:cjc020_5983"
    INDEX 01 00:38:10
  TRACK 39 AUDIO
    TITLE "0:"
    INDEX 01 00:39:23
  TRACK 40 AUDIO
    TITLE "17:cjc020_5984"
    INDEX 01 00:40:05
  TRACK 41 AUDIO
    TITLE "0:"
    INDEX 01 00:41:08
  TRACK 42 AUDIO
    TITLE "16:cjc020_5985"
    INDEX 01 00:41:14
  TRACK 43 AUDIO
    TITLE "0:"
    INDEX 01 00:42:18
  TRACK 44 AUDIO
    TITLE "17:cjc020_5986"
    INDEX 01 00:43:01
  TRACK 45 AUDIO
    TITLE "0:"
    INDEX 01 00:44:22
  TRACK 46 AUDIO
    TITLE "16:cjc020_5987"
    INDEX 01 00:44:30
  TRACK 47 AUDIO
    TITLE "0:"
    INDEX 01 00:45:45
  TRACK 48 AUDIO
    TITLE "17:cjc020_5988"
    INDEX 01 00:46:25
  TRACK 49 AUDIO
    TITLE "0:"
    INDEX 01 00:48:22
  TRACK 50 AUDIO
    TITLE "16:cjc020_5989"
    INDEX 01 00:48:28
  TRACK 51 AUDIO
    TITLE "0:"
    INDEX 01 00:49:31
  TRACK 52 AUDIO
    TITLE "17:cjc020_5990"
    INDEX 01 00:50:15
  TRACK 53 AUDIO
    TITLE "0:"
    INDEX 01 00:51:46
  TRACK 54 AUDIO
    TITLE "16:cjc020_5991"
    INDEX 01 00:51:52
  TRACK 55 AUDIO
    TITLE "0:"
    INDEX 01 00:52:49
  TRACK 56 AUDIO
    TITLE "17:cjc020_5992"
    INDEX 01 00:53:31
  TRACK 57 AUDIO
    TITLE "0:"
    INDEX 01 00:55:04
  TRACK 58 AUDIO
    TITLE "16:cjc020_5993"
    INDEX 01 00:55:14
  TRACK 59 AUDIO
    TITLE "0:"
    INDEX 01 00:56:20
  TRACK 60 AUDIO
    TITLE "17:cjc020_5994"
    INDEX 01 00:57:03
  TRACK 61 AUDIO
    TITLE "0:"
    INDEX 01 00:58:01
  TRACK 62 AUDIO
    TITLE "16:cjc020_5995"
    INDEX 01 00:58:05
  TRACK 63 AUDIO
    TITLE "0:"
    INDEX 01 00:59:24
  TRACK 64 AUDIO
    TITLE "17:cjc020_5996"
    INDEX 01 01:00:06
  TRACK 65 AUDIO
    TITLE "0:"
    INDEX 01 01:01:13
  TRACK 66 AUDIO
    TITLE "16:cjc020_5997"
    INDEX 01 01:01:19
  TRACK 67 AUDIO
    TITLE "0:"
    INDEX 01 01:02:16
